<?xml version="1.0" encoding="iso-8859-1"?>
<!-- Generator: Adobe Illustrator 19.0.0, SVG Export Plug-In . SVG Version: 6.00 Build 0)  -->
<svg version="1.1" id="Capa_1" xmlns="http://www.w3.org/2000/svg" xmlns:xlink="http://www.w3.org/1999/xlink" x="0px" y="0px"
	 viewBox="0 0 512 512" style="enable-background:new 0 0 512 512;" xml:space="preserve">
<path style="fill:#57565C;" d="M256.001,209.087c-82.006,0-162.249-15.307-238.497-45.495c-8.119-3.214-12.095-12.402-8.881-20.52
	c3.215-8.119,12.402-12.095,20.521-8.881c72.527,28.714,148.852,43.274,226.855,43.274s154.33-14.56,226.855-43.274
	c8.12-3.215,17.306,0.762,20.521,8.881c3.214,8.119-0.762,17.306-8.881,20.52C418.249,193.78,338.007,209.087,256.001,209.087z"/>
<path style="fill:#3E3D42;" d="M502.297,140.896c-1.723,2.936-4.389,5.348-7.8,6.698c-76.248,30.188-156.49,45.495-238.497,45.495
	S93.752,177.782,17.504,147.593c-3.41-1.35-6.077-3.761-7.8-6.698c-0.405,0.691-0.777,1.408-1.081,2.175
	c-3.214,8.119,0.762,17.307,8.881,20.52c76.248,30.188,156.49,45.495,238.497,45.495s162.249-15.307,238.497-45.495
	c8.119-3.214,12.095-12.402,8.881-20.52C503.073,142.304,502.701,141.586,502.297,140.896z"/>
<path style="fill:#57565C;" d="M282.266,276.66h-52.53v-31.962c0-7.733,6.269-14.002,14.002-14.002h24.527
	c7.733,0,14.002,6.269,14.002,14.002L282.266,276.66L282.266,276.66z"/>
<path style="fill:#3E3D42;" d="M270.795,230.936c-0.822-0.15-1.666-0.24-2.531-0.24h-24.527c-7.733,0-14.002,6.269-14.002,14.002
	v31.963h29.589v-31.963C259.325,237.83,264.271,232.128,270.795,230.936z"/>
<path style="fill:#FF5555;" d="M282.266,276.66h-52.53c0,0-41.16,55.941,14.075,98.153c7.173,5.482,17.208,5.482,24.381,0
	C323.424,332.601,282.266,276.66,282.266,276.66z"/>
<path style="fill:#E04141;" d="M259.325,276.66h-29.589c0,0-41.16,55.941,14.075,98.154c7.172,5.481,17.208,5.481,24.381,0
	c0.705-0.539,1.384-1.082,2.058-1.625C218.128,331.18,259.325,276.66,259.325,276.66z"/>
<path style="fill:#57565C;" d="M142.579,260.827h-52.53v-31.963c0-7.733,6.269-14.002,14.002-14.002h24.527
	c7.733,0,14.002,6.269,14.002,14.002V260.827z"/>
<path style="fill:#3E3D42;" d="M131.109,215.104c-0.822-0.15-1.666-0.24-2.531-0.24h-24.527c-7.733,0-14.002,6.269-14.002,14.002
	v31.963h29.589v-31.963C119.638,221.997,124.586,216.296,131.109,215.104z"/>
<path style="fill:#FFEB99;" d="M142.579,260.827h-52.53c0,0-41.16,55.941,14.075,98.153c7.173,5.482,17.208,5.482,24.381,0
	C183.739,316.768,142.579,260.827,142.579,260.827z"/>
<path style="fill:#FFDE55;" d="M119.638,260.827H90.049c0,0-41.16,55.941,14.075,98.154c7.172,5.481,17.208,5.481,24.381,0
	c0.705-0.539,1.384-1.082,2.058-1.625C78.442,315.348,119.638,260.827,119.638,260.827z"/>
<path style="fill:#57565C;" d="M421.951,260.827h-52.53v-31.963c0-7.733,6.269-14.002,14.002-14.002h24.527
	c7.733,0,14.002,6.269,14.002,14.002L421.951,260.827L421.951,260.827z"/>
<path style="fill:#3E3D42;" d="M410.481,215.104c-0.822-0.15-1.666-0.24-2.531-0.24h-24.527c-7.733,0-14.002,6.269-14.002,14.002
	v31.963h29.589v-31.963C399.01,221.997,403.958,216.296,410.481,215.104z"/>
<path style="fill:#60C6B7;" d="M421.951,260.827h-52.53c0,0-41.16,55.941,14.075,98.153c7.173,5.482,17.208,5.482,24.381,0
	C463.111,316.768,421.951,260.827,421.951,260.827z"/>
<path style="fill:#3DA094;" d="M399.01,260.827h-29.589c0,0-41.16,55.941,14.075,98.154c7.172,5.481,17.208,5.481,24.381,0
	c0.705-0.539,1.384-1.082,2.058-1.625C357.813,315.348,399.01,260.827,399.01,260.827z"/>
<path d="M510.35,140.309c-4.733-11.949-18.304-17.818-30.255-13.092c-19.76,7.824-39.894,14.602-60.287,20.31
	c-5.954-6.599-14.556-10.764-24.122-10.764c-14.798,0-27.31,9.94-31.233,23.49c-7.817,1.417-15.654,2.693-23.512,3.797
	c-4.102,0.576-6.96,4.368-6.384,8.471c0.576,4.102,4.369,6.955,8.471,6.383c6.892-0.968,13.77-2.068,20.631-3.271
	c0.563,4.479,1.613,10.216,3.163,16.332c-36.427,6.396-73.439,9.622-110.822,9.622c-5.001,0-9.995-0.059-14.981-0.174
	c-2.8-8.449-2.52-16.565-2.517-16.7c5.823,0.161,11.656,0.252,17.498,0.252c17.855,0,35.877-0.768,53.563-2.281
	c4.127-0.354,7.186-3.985,6.833-8.112c-0.353-4.126-3.981-7.188-8.112-6.833c-7.908,0.677-15.885,1.193-23.884,1.562
	c-5.564-9.957-16.206-16.704-28.4-16.704c-12.197,0-22.84,6.753-28.404,16.711c-26.949-1.245-53.66-4.267-80.044-9.042
	c-3.917-13.559-16.434-23.503-31.237-23.503c-9.574,0-18.191,4.161-24.148,10.766c-20.344-5.698-40.448-12.468-60.263-20.312
	c-11.951-4.731-25.522,1.143-30.255,13.093c-2.292,5.789-2.192,12.125,0.281,17.839c2.473,5.715,7.024,10.124,12.813,12.416
	c24.112,9.547,48.618,17.621,73.451,24.212c1.409,5.138,3.161,10.438,5.262,15.4c-6.503,3.702-10.906,10.685-10.906,18.687v29.66
	c-3.184,4.905-10.664,17.759-13.563,34.251c-3.449,19.622-0.943,48.069,30.582,72.163c4.93,3.769,10.837,5.652,16.745,5.652
	c5.907-0.001,11.815-1.885,16.743-5.652c5.252-4.014,9.927-8.337,13.895-12.851c2.734-3.111,2.429-7.85-0.682-10.584
	c-3.112-2.736-7.851-2.43-10.585,0.682c-3.317,3.773-7.265,7.419-11.736,10.835c-4.496,3.438-10.776,3.438-15.271,0
	c-42.238-32.279-21.683-73.196-14.603-84.694h44.433c4.621,7.655,15.328,28.611,9.708,50.75c-1.019,4.015,1.409,8.096,5.424,9.115
	c0.62,0.157,7.221,1.613,9.115-5.424c8.018-29.793-7.715-56.636-12.676-64.25v-29.654c0-8.003-4.404-14.986-10.907-18.687
	c0.524-1.238,1.028-2.495,1.509-3.767c29.264,5.228,58.901,8.439,88.804,9.635c1.072,3.374,2.291,6.739,3.657,9.965
	c-6.503,3.702-10.906,10.684-10.906,18.686v29.661c-3.184,4.905-10.664,17.759-13.563,34.251
	c-3.449,19.622-0.943,48.069,30.583,72.163c4.929,3.768,10.837,5.651,16.744,5.65c5.908,0,11.815-1.883,16.744-5.65
	c31.525-24.093,34.032-52.54,30.582-72.163c-2.899-16.491-10.378-29.347-13.563-34.251v-29.661c0-8.006-4.407-14.99-10.913-18.69
	c1.366-3.226,2.583-6.586,3.655-9.96c29.906-1.196,59.547-4.408,88.814-9.636c0.481,1.272,0.982,2.53,1.506,3.768
	c-6.503,3.702-10.907,10.685-10.907,18.687v29.66c-3.184,4.905-10.664,17.759-13.563,34.251
	c-3.449,19.622-0.943,48.069,30.582,72.163c4.93,3.769,10.837,5.652,16.745,5.652c5.907-0.001,11.816-1.885,16.744-5.652
	c31.526-24.093,34.032-52.54,30.583-72.163c-2.899-16.491-10.379-29.347-13.563-34.251v-29.66c0-8.006-4.406-14.99-10.912-18.691
	c2.102-4.965,3.852-10.256,5.261-15.395c24.835-6.592,49.343-14.668,73.458-24.214c5.79-2.292,10.34-6.701,12.813-12.416
	C512.543,152.435,512.643,146.099,510.35,140.309z M256.001,167.596c3.144,0,6.089,0.842,8.639,2.3
	c-2.882,0.041-5.763,0.069-8.639,0.069c-2.885,0-5.767-0.027-8.647-0.067C249.908,168.44,252.855,167.596,256.001,167.596z
	 M116.314,151.764c4.589,0,8.763,1.78,11.885,4.68c-5.68-1.221-11.342-2.532-16.987-3.917
	C112.827,152.033,114.539,151.764,116.314,151.764z M20.264,156.618c-6.192-2.491-5.485-8.723-4.668-10.786
	c1.687-4.261,6.527-6.356,10.789-4.668c19.239,7.617,38.744,14.24,58.472,19.881c-2.047,8.499-0.773,13.452-0.202,17.225
	C62.912,172.219,41.386,165.115,20.264,156.618z M135.08,253.327H97.549v-24.462c0-3.586,2.917-6.503,6.502-6.503h24.527
	c3.585,0,6.502,2.917,6.502,6.503V253.327z M123.969,207.363H108.66c-1.075-2.297-2.207-5.04-3.364-8.303
	c6.758,1.599,13.536,3.099,20.337,4.48C125.067,204.934,124.511,206.206,123.969,207.363z M100.634,182.489
	c-1.185-5.53-2.29-11.408-1.287-17.488c40.593,10.553,82.089,16.946,124.16,19.118c-0.01,0.332-0.576,8.997,2.043,16.753
	C183.248,198.88,141.505,192.728,100.634,182.489z M268.263,238.195c3.585,0,6.502,2.917,6.502,6.502v24.463h-37.531v-24.463
	c0-3.585,2.917-6.502,6.502-6.502H268.263z M263.637,368.853c-4.497,3.436-10.777,3.438-15.273,0
	c-42.238-32.279-21.683-73.196-14.602-84.694h44.454c2.899,4.767,8.173,14.719,10.34,27.046
	C292.525,333.789,284.141,353.184,263.637,368.853z M263.654,223.195h-15.309c-0.894-1.911-1.828-4.131-2.782-6.701
	c3.476,0.054,6.955,0.092,10.437,0.092c3.483,0,6.961-0.038,10.437-0.092C265.482,219.064,264.549,221.285,263.654,223.195z
	 M395.686,151.764c1.766,0,3.47,0.267,5.079,0.755c-5.628,1.381-11.273,2.684-16.932,3.902
	C386.956,153.54,391.112,151.764,395.686,151.764z M407.95,222.362c3.585,0,6.502,2.917,6.502,6.503v24.462h-37.531v-24.462
	c0-3.586,2.917-6.503,6.502-6.503H407.95z M403.322,353.021c-4.496,3.438-10.776,3.438-15.272,0
	c-42.238-32.279-21.683-73.196-14.603-84.694h44.454c2.899,4.767,8.173,14.719,10.34,27.046
	C432.21,317.956,423.826,337.352,403.322,353.021z M403.341,207.363h-15.31c-0.542-1.158-1.098-2.43-1.665-3.823
	c6.802-1.381,13.58-2.881,20.337-4.48C405.548,202.323,404.416,205.066,403.341,207.363z M491.737,156.618
	c-35.5,15.156-72.675,25.075-110.116,32.568c-1.658-6.204-2.776-12.079-3.227-16.313c36.485-7.313,72.419-17.928,107.222-31.708
	c4.262-1.688,9.102,0.406,10.788,4.667C497.222,147.896,497.766,154.044,491.737,156.618z"/>
<g>
</g>
<g>
</g>
<g>
</g>
<g>
</g>
<g>
</g>
<g>
</g>
<g>
</g>
<g>
</g>
<g>
</g>
<g>
</g>
<g>
</g>
<g>
</g>
<g>
</g>
<g>
</g>
<g>
</g>
</svg>
