<svg height="512" viewBox="0 0 64 64" width="512" xmlns="http://www.w3.org/2000/svg"><g id="conference"><path d="m61 23v22h-58v-22a2.006 2.006 0 0 1 2-2h54a2.006 2.006 0 0 1 2 2z" fill="#00d7df"/><path d="m61 23v22h-3v-22a2.006 2.006 0 0 0 -2-2h3a2.006 2.006 0 0 1 2 2z" fill="#009698"/><path d="m61 23v1a2.006 2.006 0 0 1 -2 2h-4l-4 4v-4h-4a2.006 2.006 0 0 1 -2-2v-6a2.006 2.006 0 0 1 2-2h12a2.006 2.006 0 0 1 2 2z" fill="#ff7956"/><path d="m46 36v5h-28v-5a8.012 8.012 0 0 1 7-8h14a8.012 8.012 0 0 1 7 8z" fill="#ff7956"/><path d="m46 36v5h-4v-5a8.012 8.012 0 0 0 -7-8h4a8.012 8.012 0 0 1 7 8z" fill="#ff5023"/><path d="m61 45v4a2.006 2.006 0 0 1 -2 2h-54a2.006 2.006 0 0 1 -2-2v-4z" fill="#c6c5ca"/><path d="m41 57 3 4h-24l3-4h2 14z" fill="#c6c5ca"/><path d="m38 51 1 6h-14l1-6z" fill="#57a4ff"/><path d="m61 45v4a2.006 2.006 0 0 1 -2 2h-3a2.006 2.006 0 0 0 2-2v-4z" fill="#898890"/><path d="m38 51 1 2h-14l1-2z" fill="#2488ff"/><path d="m41 16v1a1 1 0 0 1 -1 1h-2v-3h2a1 1 0 0 1 1 1z" fill="#ffdaaa"/><path d="m41 3v4a5.985 5.985 0 0 1 -3 5.19v-.19l-3.1-.78c-.12.56-.38.21-.9.78-1.33 1.43-3.7 1.56-4 1-.19-.36.58-.79 1-2a1.334 1.334 0 0 0 0-1h-1l-4 2v1h-1a2.006 2.006 0 0 1 -2-2v-2a6 6 0 0 1 6-6z" fill="#ffde55"/><path d="m39 28-5 7-2-4 3-3 1-1z" fill="#00d7df"/><path d="m38 12v6a5.857 5.857 0 0 1 -.81 3 5.956 5.956 0 0 1 -2.93 2.56 6.024 6.024 0 0 1 -4.52 0 5.956 5.956 0 0 1 -2.93-2.56 5.857 5.857 0 0 1 -.81-3v-6l4-2h1a1.334 1.334 0 0 1 0 1c-.42 1.21-1.19 1.64-1 2 .3.56 2.67.43 4-1 .52-.57.78-.22.9-.78z" fill="#ffdaaa"/><path d="m34.26 23.56.74 4.44-3 3-3-3 .74-4.44a6.024 6.024 0 0 0 4.52 0z" fill="#ffdaaa"/><path d="m32 31-2 4-5-7 3-1 1 1z" fill="#00d7df"/><path d="m26 15v3h-2a1 1 0 0 1 -1-1v-1a1 1 0 0 1 1-1z" fill="#ffdaaa"/><path d="m19 5v6a2.006 2.006 0 0 1 -2 2h-4v4l-4-4h-4a2.006 2.006 0 0 1 -2-2v-6a2.006 2.006 0 0 1 2-2h12a2.006 2.006 0 0 1 2 2z" fill="#00d7df"/><path d="m41 3v4a5.985 5.985 0 0 1 -3 5.19v-.19l-2.81-.71a5.965 5.965 0 0 0 1.81-4.29v-4z" fill="#ffcd00"/><path d="m38 12v6a6.009 6.009 0 0 1 -3.74 5.56 5.893 5.893 0 0 1 -1.93.42l-.07-.42a6.009 6.009 0 0 0 3.74-5.56v-6l-1.46-.37c.18-.07.29-.09.36-.41z" fill="#ffc477"/><path d="m35 28-3 3-1-1 2-2-.67-4.02a5.893 5.893 0 0 0 1.93-.42z" fill="#ffc477"/><path d="m33 15h2v2h-2z"/><path d="m29 15h2v2h-2z"/><path d="m5 14h3.586l3.707 3.707a1 1 0 0 0 .707.293.987.987 0 0 0 .383-.076 1 1 0 0 0 .617-.924v-3h3a3 3 0 0 0 3-3v-6a3 3 0 0 0 -3-3h-12a3 3 0 0 0 -3 3v6a3 3 0 0 0 3 3zm-1-9a1 1 0 0 1 1-1h12a1 1 0 0 1 1 1v6a1 1 0 0 1 -1 1h-4a1 1 0 0 0 -1 1v1.586l-2.293-2.293a1 1 0 0 0 -.707-.293h-4a1 1 0 0 1 -1-1z"/><path d="m6 7h2v2h-2z"/><path d="m10 7h6v2h-6z"/><path d="m59 15h-12a3.009 3.009 0 0 0 -3 3v2h-5.29a8.053 8.053 0 0 0 .21-1h1.08a2.006 2.006 0 0 0 2-2v-1a2.006 2.006 0 0 0 -2-2h-1v-1.28a6.981 6.981 0 0 0 3-5.72v-4a1 1 0 0 0 -1-1h-12a7.008 7.008 0 0 0 -7 7v2a3.009 3.009 0 0 0 3 3h-1a2.006 2.006 0 0 0 -2 2v1a2.006 2.006 0 0 0 2 2h1.08a8.053 8.053 0 0 0 .21 1h-20.29a3.009 3.009 0 0 0 -3 3v26a3.009 3.009 0 0 0 3 3h19.82l-.67 4h-1.15a1.014 1.014 0 0 0 -.8.4l-3 4a1 1 0 0 0 .8 1.6h24a1 1 0 0 0 .8-1.6l-3-4a1.014 1.014 0 0 0 -.8-.4h-1.15l-.67-4h19.82a3.009 3.009 0 0 0 3-3v-31a3.009 3.009 0 0 0 -3-3zm-34 2h-1v-1h1zm15-1v1h-1v-1zm-15-4a1 1 0 0 1 -1-1v-2a5 5 0 0 1 5-5h11v3a4.963 4.963 0 0 1 -1.98 3.97l-2.88-.72a1.04 1.04 0 0 0 -1.1.5 2.293 2.293 0 0 0 -.77.57 3.419 3.419 0 0 1 -1.75.93 4.95 4.95 0 0 0 .42-.92 2.3 2.3 0 0 0 -.05-1.79 1 1 0 0 0 -.89-.54h-1a1 1 0 0 0 -.45.11l-4 2a.988.988 0 0 0 -.55.89zm4.19 23.58a.99.99 0 0 0 1.7-.13l1.11-2.21 1.11 2.21a.993.993 0 0 0 .81.55h.08a.983.983 0 0 0 .81-.42l4.64-6.49a7.015 7.015 0 0 1 5.55 6.91v4h-26v-4a7.015 7.015 0 0 1 5.55-6.91zm-2.59-7.06 1.13-.38 3.05 3.06-.93 1.87zm7.55 4.55-.93-1.87 3.05-3.06 1.13.38zm-2.15-3.48-1.93-1.93.47-2.82a6.741 6.741 0 0 0 2.92 0l.47 2.82zm0-6.59a5 5 0 0 1 -5-5v-5.38l2.81-1.41c-.12.2-.24.37-.35.52a1.589 1.589 0 0 0 -.34 1.74 1.669 1.669 0 0 0 1.37.81 5.32 5.32 0 0 0 4.25-1.61.268.268 0 0 1 .17-.11 1.543 1.543 0 0 0 .4-.21l1.69.43v5.22a5 5 0 0 1 -5 5zm8.5 35 1.5 2h-20l1.5-2zm-14.32-2 .67-4h10.3l.67 4zm33.82-7a1 1 0 0 1 -1 1h-54a1 1 0 0 1 -1-1v-3h56zm0-5h-56v-21a1 1 0 0 1 1-1h21.26a7.117 7.117 0 0 0 2.37 2.13l-.32 1.93a.97.97 0 0 0 -.63-.01l-2.93.98a9 9 0 0 0 -7.75 8.97v5a1 1 0 0 0 1 1h28a1 1 0 0 0 1-1v-5a9 9 0 0 0 -7.75-8.97l-2.93-.98a.97.97 0 0 0 -.63.01l-.32-1.93a7.117 7.117 0 0 0 2.37-2.13h6.26v2a3.009 3.009 0 0 0 3 3h3v3a.987.987 0 0 0 .62.92.838.838 0 0 0 .38.08 1.007 1.007 0 0 0 .71-.29l3.7-3.71h3.59a3 3 0 0 0 1-.18zm0-20a1 1 0 0 1 -1 1h-4a1.033 1.033 0 0 0 -.71.29l-2.29 2.3v-1.59a1 1 0 0 0 -1-1h-4a1 1 0 0 1 -1-1v-6a1 1 0 0 1 1-1h12a1 1 0 0 1 1 1z"/><path d="m56 20h2v2h-2z"/><path d="m48 20h6v2h-6z"/></g></svg>