<svg height="512" viewBox="0 0 64 64" width="512" xmlns="http://www.w3.org/2000/svg"><g id="computer-camera-conferance-video_conferance-learning" data-name="computer-camera-conferance-video conferance-learning"><circle cx="32" cy="8" fill="#e0e0e2" r="5"/><path d="m37 8a5 5 0 0 1 -5 5 5.106 5.106 0 0 1 -2-.41 5.011 5.011 0 0 0 0-9.18 5.106 5.106 0 0 1 2-.41 5 5 0 0 1 5 5z" fill="#c6c5ca"/><path d="m57 41v4a4 4 0 0 1 -4 4h-42a4 4 0 0 1 -4-4v-4z" fill="#898890"/><path d="m7 41v-24a4 4 0 0 1 4-4h42a4 4 0 0 1 4 4v24z" fill="#46f8ff"/><path d="m57 41v4a4 4 0 0 1 -4 4h-4a4 4 0 0 0 4-4v-4z" fill="#787680"/><path d="m57 17v24h-4v-24a4 4 0 0 0 -4-4h4a4 4 0 0 1 4 4z" fill="#00d7df"/><path d="m44 59v2h-24v-2a2.006 2.006 0 0 1 2-2h20a2.006 2.006 0 0 1 2 2z" fill="#898890"/><path d="m44 59v2h-4v-2a2.006 2.006 0 0 0 -2-2h4a2.006 2.006 0 0 1 2 2z" fill="#787680"/><path d="m41 39v2h-18v-2a3 3 0 0 1 3-3h12a3 3 0 0 1 3 3z" fill="#91dc5a"/><path d="m41 39v2h-4v-2a3 3 0 0 0 -3-3h4a3 3 0 0 1 3 3z" fill="#5eac24"/><path d="m40 28h-2l-3-2-5 2-1-2-3 2h-2a8 8 0 1 1 16 0z" fill="#ffcd00"/><path d="m38 28v2a6 6 0 0 1 -6 6 6.009 6.009 0 0 1 -6-6v-2l3-2 1 2 5-2z" fill="#ffc477"/><path d="m27 49h10v8h-10z" fill="#c6c5ca"/><path d="m33 49h4v8h-4z" fill="#acabb1"/><path d="m35.2 13 1.8 3h-10l1.8-3 .48-.8a4.99 4.99 0 0 0 2.5.79 2.425 2.425 0 0 0 .44 0 4.99 4.99 0 0 0 2.5-.79z" fill="#c6c5ca"/><path d="m37 16h-2l-1.8-3-.08-.13a4.939 4.939 0 0 0 1.6-.67l.48.8z" fill="#898890"/><path d="m32 9a2 2 0 0 1 .22 3.99 2.425 2.425 0 0 1 -.44 0 2 2 0 0 1 .22-3.99z" fill="#ff3051"/><path d="m34 11a2.011 2.011 0 0 1 -1.78 1.99 2.425 2.425 0 0 1 -.44 0 1.9 1.9 0 0 1 -.78-.26 2 2 0 0 0 0-3.46 2 2 0 0 1 3 1.73z" fill="#cd2a00"/><path d="m40 28h-2l-2.13-1.42a8.023 8.023 0 0 0 -2.21-4.24 8.122 8.122 0 0 0 -3.66-2.09 8.239 8.239 0 0 1 2-.25 7.989 7.989 0 0 1 8 8z" fill="#ebbf00"/><path d="m38 28v2a5.981 5.981 0 0 1 -4 5.65 5.889 5.889 0 0 1 -4 0 5.981 5.981 0 0 0 4-5.65v-2l-1.5-1 2.5-1z" fill="#ffa733"/><path d="m50 44h2v2h-2z"/><path d="m46 44h2v2h-2z"/><path d="m12 18h2v2h-2z"/><path d="m16 18h6v2h-6z"/><path d="m12 24h8v2h-8z"/><path d="m12 30h8v2h-8z"/><path d="m12 36h8v2h-8z"/><path d="m42 18h2v2h-2z"/><path d="m46 18h6v2h-6z"/><path d="m44 24h8v2h-8z"/><path d="m44 30h8v2h-8z"/><path d="m44 36h8v2h-8z"/><path d="m53 12h-16.54a6 6 0 1 0 -8.92 0h-16.54a5 5 0 0 0 -5 5v28a5 5 0 0 0 5 5h15v6h-4a3.009 3.009 0 0 0 -3 3v2a1 1 0 0 0 1 1h24a1 1 0 0 0 1-1v-2a3.009 3.009 0 0 0 -3-3h-4v-6h15a5 5 0 0 0 5-5v-28a5 5 0 0 0 -5-5zm-21-8a3.986 3.986 0 0 1 2.97 6.66 2.988 2.988 0 0 0 -5.94 0 3.986 3.986 0 0 1 2.97-6.66zm0 10a5.947 5.947 0 0 0 2.35-.48l.88 1.48h-6.46l.88-1.48a5.947 5.947 0 0 0 2.35.48zm-1-3a1 1 0 1 1 1 1 1 1 0 0 1 -1-1zm11 47a1 1 0 0 1 1 1v1h-22v-1a1 1 0 0 1 1-1zm-14-2v-6h8v6zm28-11a3.009 3.009 0 0 1 -3 3h-42a3.009 3.009 0 0 1 -3-3v-3h48zm-29-16.46 1.61-1.08.5.99a.981.981 0 0 0 .89.55.971.971 0 0 0 .37-.07l4.51-1.81 2.12 1.42v1.46a5 5 0 0 1 -10 0zm-1.3-1.54h-.63a7 7 0 0 1 13.86 0h-.63l-2.75-1.83a.975.975 0 0 0 -.92-.1l-4.15 1.66-.59-1.18a1.024 1.024 0 0 0 -.63-.52 1.009 1.009 0 0 0 -.81.14zm12.3 10a2.006 2.006 0 0 1 2 2v1h-16v-1a2.006 2.006 0 0 1 2-2zm18 3h-14v-1a4 4 0 0 0 -4-4h-1.11a6.97 6.97 0 0 0 2.11-5v-1h1a1 1 0 0 0 1-1 9 9 0 0 0 -18 0 1 1 0 0 0 1 1h1v1a6.97 6.97 0 0 0 2.11 5h-1.11a4 4 0 0 0 -4 4v1h-14v-23a3.009 3.009 0 0 1 3-3h16.03l-.89 1.49a1 1 0 0 0 .86 1.51h10a1 1 0 0 0 .86-1.51l-.89-1.49h16.03a3.009 3.009 0 0 1 3 3z"/></g></svg>